<svg width="1200" height="720" viewBox="0 0 1200 720" fill="none" xmlns="http://www.w3.org/2000/svg">
  <rect width="1200" height="720" rx="40" fill="#F7F5EF"/>
  <rect x="72" y="84" width="1056" height="552" rx="28" fill="white" stroke="#D8D4C9" stroke-width="2"/>
  <text x="120" y="150" fill="#1F2430" font-family="Segoe UI, sans-serif" font-size="40" font-weight="700">BatchFlow System Overview</text>
  <text x="120" y="188" fill="#5A6372" font-family="Segoe UI, sans-serif" font-size="22">A workflow-driven CRM for the full institute operations cycle.</text>

  <rect x="120" y="280" width="172" height="110" rx="22" fill="#F1EFE8" stroke="#D8D4C9" stroke-width="2"/>
  <rect x="336" y="280" width="172" height="110" rx="22" fill="#F1EFE8" stroke="#D8D4C9" stroke-width="2"/>
  <rect x="552" y="280" width="172" height="110" rx="22" fill="#E8EDFF" stroke="#3457D5" stroke-width="2"/>
  <rect x="768" y="280" width="172" height="110" rx="22" fill="#F1EFE8" stroke="#D8D4C9" stroke-width="2"/>
  <rect x="984" y="280" width="104" height="110" rx="22" fill="#F1EFE8" stroke="#D8D4C9" stroke-width="2"/>

  <text x="154" y="325" fill="#1F2430" font-family="Segoe UI, sans-serif" font-size="22" font-weight="700">Inquiry</text>
  <text x="153" y="357" fill="#5A6372" font-family="Segoe UI, sans-serif" font-size="18">Lead and</text>
  <text x="145" y="382" fill="#5A6372" font-family="Segoe UI, sans-serif" font-size="18">admission</text>

  <text x="372" y="325" fill="#1F2430" font-family="Segoe UI, sans-serif" font-size="22" font-weight="700">Student</text>
  <text x="374" y="357" fill="#5A6372" font-family="Segoe UI, sans-serif" font-size="18">Profile and</text>
  <text x="379" y="382" fill="#5A6372" font-family="Segoe UI, sans-serif" font-size="18">batching</text>

  <text x="590" y="325" fill="#1F2430" font-family="Segoe UI, sans-serif" font-size="22" font-weight="700">Operations</text>
  <text x="599" y="357" fill="#5A6372" font-family="Segoe UI, sans-serif" font-size="18">Fees, tests,</text>
  <text x="596" y="382" fill="#5A6372" font-family="Segoe UI, sans-serif" font-size="18">attendance</text>

  <text x="796" y="325" fill="#1F2430" font-family="Segoe UI, sans-serif" font-size="22" font-weight="700">Communication</text>
  <text x="824" y="357" fill="#5A6372" font-family="Segoe UI, sans-serif" font-size="18">History and</text>
  <text x="842" y="382" fill="#5A6372" font-family="Segoe UI, sans-serif" font-size="18">follow-up</text>

  <text x="1008" y="325" fill="#1F2430" font-family="Segoe UI, sans-serif" font-size="22" font-weight="700">Insights</text>
  <text x="1006" y="357" fill="#5A6372" font-family="Segoe UI, sans-serif" font-size="18">Admin</text>
  <text x="1004" y="382" fill="#5A6372" font-family="Segoe UI, sans-serif" font-size="18">view</text>

  <path d="M292 335H336" stroke="#3457D5" stroke-width="4" stroke-linecap="round"/>
  <path d="M508 335H552" stroke="#3457D5" stroke-width="4" stroke-linecap="round"/>
  <path d="M724 335H768" stroke="#3457D5" stroke-width="4" stroke-linecap="round"/>
  <path d="M940 335H984" stroke="#3457D5" stroke-width="4" stroke-linecap="round"/>

  <rect x="230" y="470" width="740" height="86" rx="20" fill="#1F2430"/>
  <text x="280" y="522" fill="white" font-family="Segoe UI, sans-serif" font-size="24" font-weight="700">Shared operating layer</text>
  <text x="525" y="522" fill="#C7D2FE" font-family="Segoe UI, sans-serif" font-size="22">One system for daily work, record-keeping, and institute decisions</text>
</svg>
