<svg width="1200" height="900" viewBox="0 0 1200 900" fill="none" xmlns="http://www.w3.org/2000/svg">
  <rect width="1200" height="900" rx="42" fill="#F4F6FB"/>
  <rect x="56" y="56" width="1088" height="788" rx="26" fill="white" stroke="#D8E0F0" stroke-width="2"/>
  <text x="96" y="132" fill="#1F2430" font-family="Segoe UI, sans-serif" font-size="42" font-weight="700">Business Impact View</text>
  <text x="96" y="170" fill="#5A6372" font-family="Segoe UI, sans-serif" font-size="22">The same infrastructure events translated into client-facing outcomes.</text>

  <rect x="96" y="220" width="298" height="162" rx="24" fill="#EEF3FF" stroke="#C9D6FF" stroke-width="2"/>
  <text x="128" y="270" fill="#5A6372" font-family="Segoe UI, sans-serif" font-size="20">Revenue stability</text>
  <text x="128" y="328" fill="#1F2430" font-family="Segoe UI, sans-serif" font-size="40" font-weight="700">Protected</text>
  <text x="128" y="360" fill="#3457D5" font-family="Segoe UI, sans-serif" font-size="20">Mapped from uptime and availability</text>

  <rect x="426" y="220" width="298" height="162" rx="24" fill="#F7F1FF" stroke="#DCCEFF" stroke-width="2"/>
  <text x="458" y="270" fill="#5A6372" font-family="Segoe UI, sans-serif" font-size="20">Experience risk</text>
  <text x="458" y="328" fill="#1F2430" font-family="Segoe UI, sans-serif" font-size="40" font-weight="700">Low</text>
  <text x="458" y="360" fill="#7F5AF0" font-family="Segoe UI, sans-serif" font-size="20">Mapped from load and service quality</text>

  <rect x="756" y="220" width="292" height="162" rx="24" fill="#F4FBF7" stroke="#CBE9D5" stroke-width="2"/>
  <text x="788" y="270" fill="#5A6372" font-family="Segoe UI, sans-serif" font-size="20">Loss prevented</text>
  <text x="788" y="328" fill="#1F2430" font-family="Segoe UI, sans-serif" font-size="40" font-weight="700">Value visible</text>
  <text x="788" y="360" fill="#1D9B62" font-family="Segoe UI, sans-serif" font-size="20">Support for ROI conversations</text>

  <rect x="96" y="430" width="952" height="324" rx="24" fill="#FAFBFD" stroke="#D8E0F0" stroke-width="2"/>
  <text x="132" y="486" fill="#1F2430" font-family="Segoe UI, sans-serif" font-size="28" font-weight="700">Technical event to business translation</text>
  <rect x="132" y="536" width="256" height="70" rx="18" fill="#EEF3FF"/>
  <rect x="430" y="536" width="256" height="70" rx="18" fill="#F7F1FF"/>
  <rect x="728" y="536" width="284" height="70" rx="18" fill="#F4FBF7"/>
  <text x="160" y="579" fill="#3457D5" font-family="Segoe UI, sans-serif" font-size="24" font-weight="700">High latency</text>
  <text x="458" y="579" fill="#7F5AF0" font-family="Segoe UI, sans-serif" font-size="24" font-weight="700">Checkout slowdown</text>
  <text x="760" y="579" fill="#1D9B62" font-family="Segoe UI, sans-serif" font-size="24" font-weight="700">Revenue risk explained</text>
  <path d="M388 570H430" stroke="#3457D5" stroke-width="4" stroke-linecap="round"/>
  <path d="M686 570H728" stroke="#3457D5" stroke-width="4" stroke-linecap="round"/>
</svg>
