<svg width="1200" height="900" viewBox="0 0 1200 900" fill="none" xmlns="http://www.w3.org/2000/svg">
  <rect width="1200" height="900" rx="42" fill="#190F14"/>
  <rect x="56" y="56" width="1088" height="788" rx="26" fill="#24141D" stroke="#4B2334" stroke-width="2"/>
  <text x="96" y="132" fill="white" font-family="Segoe UI, sans-serif" font-size="42" font-weight="700">Incident Simulation</text>
  <text x="96" y="170" fill="#C59AAA" font-family="Segoe UI, sans-serif" font-size="22">A storytelling mode for showing response, recovery, and value under pressure.</text>

  <rect x="96" y="226" width="280" height="124" rx="22" fill="#351B25"/>
  <text x="128" y="270" fill="#F6BDC8" font-family="Segoe UI, sans-serif" font-size="20">System state</text>
  <text x="128" y="322" fill="white" font-family="Segoe UI, sans-serif" font-size="38" font-weight="700">Critical</text>

  <rect x="404" y="226" width="280" height="124" rx="22" fill="#351B25"/>
  <text x="436" y="270" fill="#F6BDC8" font-family="Segoe UI, sans-serif" font-size="20">Customer impact</text>
  <text x="436" y="322" fill="white" font-family="Segoe UI, sans-serif" font-size="38" font-weight="700">Visible</text>

  <rect x="712" y="226" width="336" height="124" rx="22" fill="#402817"/>
  <text x="744" y="270" fill="#F6C68A" font-family="Segoe UI, sans-serif" font-size="20">Guided action</text>
  <text x="744" y="322" fill="white" font-family="Segoe UI, sans-serif" font-size="38" font-weight="700">Auto-heal flow</text>

  <rect x="96" y="404" width="952" height="332" rx="24" fill="#2A1721"/>
  <text x="132" y="460" fill="white" font-family="Segoe UI, sans-serif" font-size="28" font-weight="700">Simulation sequence</text>
  <rect x="132" y="520" width="228" height="72" rx="18" fill="#4A2231"/>
  <rect x="414" y="520" width="228" height="72" rx="18" fill="#61283D"/>
  <rect x="696" y="520" width="316" height="72" rx="18" fill="#274535"/>
  <text x="164" y="565" fill="#FDE2E8" font-family="Segoe UI, sans-serif" font-size="22" font-weight="700">Trigger event</text>
  <text x="448" y="565" fill="#FDE2E8" font-family="Segoe UI, sans-serif" font-size="22" font-weight="700">Escalate and explain</text>
  <text x="730" y="565" fill="#D8F7E8" font-family="Segoe UI, sans-serif" font-size="22" font-weight="700">Recover and report</text>
  <path d="M360 556H414" stroke="#F26C8C" stroke-width="4" stroke-linecap="round"/>
  <path d="M642 556H696" stroke="#F26C8C" stroke-width="4" stroke-linecap="round"/>
</svg>
