<svg width="1200" height="720" viewBox="0 0 1200 720" fill="none" xmlns="http://www.w3.org/2000/svg">
  <rect width="1200" height="720" rx="40" fill="#F7F5EF"/>
  <rect x="72" y="84" width="1056" height="552" rx="28" fill="white" stroke="#D8D4C9" stroke-width="2"/>
  <text x="120" y="150" fill="#1F2430" font-family="Segoe UI, sans-serif" font-size="40" font-weight="700">NetQ Command System Overview</text>
  <text x="120" y="188" fill="#5A6372" font-family="Segoe UI, sans-serif" font-size="22">A translation layer between infrastructure signals and business-facing decisions.</text>

  <rect x="120" y="270" width="180" height="120" rx="22" fill="#F1EFE8" stroke="#D8D4C9" stroke-width="2"/>
  <text x="150" y="320" fill="#1F2430" font-family="Segoe UI, sans-serif" font-size="24" font-weight="700">Command</text>
  <text x="150" y="355" fill="#5A6372" font-family="Segoe UI, sans-serif" font-size="20">Input and</text>
  <text x="150" y="382" fill="#5A6372" font-family="Segoe UI, sans-serif" font-size="20">system signals</text>

  <rect x="350" y="270" width="180" height="120" rx="22" fill="#F1EFE8" stroke="#D8D4C9" stroke-width="2"/>
  <text x="388" y="320" fill="#1F2430" font-family="Segoe UI, sans-serif" font-size="24" font-weight="700">Validation</text>
  <text x="384" y="355" fill="#5A6372" font-family="Segoe UI, sans-serif" font-size="20">Parsing and</text>
  <text x="387" y="382" fill="#5A6372" font-family="Segoe UI, sans-serif" font-size="20">classification</text>

  <rect x="580" y="270" width="180" height="120" rx="22" fill="#E8EDFF" stroke="#3457D5" stroke-width="2"/>
  <text x="618" y="320" fill="#1F2430" font-family="Segoe UI, sans-serif" font-size="24" font-weight="700">Execution</text>
  <text x="615" y="355" fill="#5A6372" font-family="Segoe UI, sans-serif" font-size="20">Remediation</text>
  <text x="617" y="382" fill="#5A6372" font-family="Segoe UI, sans-serif" font-size="20">and logging</text>

  <rect x="810" y="270" width="180" height="120" rx="22" fill="#F1EFE8" stroke="#D8D4C9" stroke-width="2"/>
  <text x="837" y="320" fill="#1F2430" font-family="Segoe UI, sans-serif" font-size="24" font-weight="700">Translation</text>
  <text x="855" y="355" fill="#5A6372" font-family="Segoe UI, sans-serif" font-size="20">Business</text>
  <text x="840" y="382" fill="#5A6372" font-family="Segoe UI, sans-serif" font-size="20">impact framing</text>

  <path d="M300 330H350" stroke="#3457D5" stroke-width="4" stroke-linecap="round"/>
  <path d="M530 330H580" stroke="#3457D5" stroke-width="4" stroke-linecap="round"/>
  <path d="M760 330H810" stroke="#3457D5" stroke-width="4" stroke-linecap="round"/>

  <rect x="256" y="470" width="688" height="90" rx="20" fill="#1F2430"/>
  <text x="304" y="523" fill="white" font-family="Segoe UI, sans-serif" font-size="24" font-weight="700">Shared output layer</text>
  <text x="527" y="523" fill="#C7D2FE" font-family="Segoe UI, sans-serif" font-size="22">Operator feedback, incident state, reports, and client communication</text>
</svg>
